<svg width="27" height="70" viewBox="0 0 27 70" fill="none" xmlns="http://www.w3.org/2000/svg">
<path d="M7.5 69.5V1M7.5 1L1 7.5M7.5 1L14 7.5" stroke="#616161"/>
<path d="M12 46.289L20.515 46.289L20.515 43.403L21.529 43.403L21.529 50.384L20.515 50.384L20.515 47.498L12 47.498L12 46.289ZM11.831 55.2244C11.831 54.427 12.0303 53.7207 12.429 53.1054C12.8363 52.4987 13.4127 52.022 14.158 51.6754C14.9033 51.3287 15.783 51.1554 16.797 51.1554C17.8197 51.1554 18.695 51.3287 19.423 51.6754C20.1597 52.022 20.723 52.4987 21.113 53.1054C21.503 53.7207 21.698 54.427 21.698 55.2244C21.698 56.0217 21.4987 56.7237 21.1 57.3304C20.71 57.9457 20.151 58.4267 19.423 58.7734C18.695 59.12 17.8197 59.2934 16.797 59.2934C15.783 59.2934 14.9033 59.12 14.158 58.7734C13.4127 58.4267 12.8363 57.9457 12.429 57.3304C12.0303 56.7237 11.831 56.0217 11.831 55.2244ZM12.884 55.2244C12.884 55.7964 13.0443 56.2947 13.365 56.7194C13.6857 57.144 14.1407 57.4734 14.73 57.7074C15.3193 57.9414 16.0083 58.0584 16.797 58.0584C17.5943 58.0584 18.279 57.9414 18.851 57.7074C19.4317 57.4734 19.8737 57.144 20.177 56.7194C20.489 56.2947 20.645 55.7964 20.645 55.2244C20.645 54.661 20.489 54.1627 20.177 53.7294C19.8737 53.3047 19.4317 52.9754 18.851 52.7414C18.279 52.5074 17.5943 52.3904 16.797 52.3904C16.0083 52.3904 15.3193 52.5074 14.73 52.7414C14.1407 52.9754 13.6857 53.3047 13.365 53.7294C13.0443 54.1627 12.884 54.661 12.884 55.2244ZM12 61.3628L21.529 61.3628L21.529 64.0798C21.529 64.7905 21.438 65.4145 21.256 65.9518C21.0827 66.4891 20.7923 66.9051 20.385 67.1998C19.9777 67.4945 19.4273 67.6418 18.734 67.6418C18.0667 67.6418 17.5163 67.4945 17.083 67.1998C16.6497 66.9051 16.3247 66.4935 16.108 65.9648C15.9 65.4361 15.796 64.8251 15.796 64.1318L15.796 62.5588L12 62.5588L12 61.3628ZM16.771 62.5588L16.771 63.9758C16.771 64.8078 16.927 65.4275 17.239 65.8348C17.551 66.2421 18.0493 66.4458 18.734 66.4458C19.4273 66.4458 19.904 66.2335 20.164 65.8088C20.424 65.3928 20.554 64.7645 20.554 63.9238L20.554 62.5588L16.771 62.5588Z" fill="#616161"/>
</svg>
