<svg xmlns="http://www.w3.org/2000/svg" viewBox="0 0 418.62 100.45"><defs><style>.cls-1{fill:#80c342;}.cls-2{fill:#ec008c;}.cls-3{fill:#00aeef;}.cls-4{fill:#2e3192;}.cls-5{fill:#6d6e71;}</style></defs><title>Asset 1logo</title><g id="Layer_2" data-name="Layer 2"><g id="Layer_1-2" data-name="Layer 1"><path class="cls-1" d="M193.8,60.34c16,4.1,32.86,11.1,53.38,16.1a236.94,236.94,0,0,0,35-13.23A130.91,130.91,0,0,1,327,51H123.86c3.89.19,7.78.4,11.67.69C156.07,53.25,173.86,55.22,193.8,60.34Z"/><path class="cls-2" d="M139.33,73.51c34,11.93,69.23,14,107.85,2.93-20.52-5-37.42-12-53.38-16.1-19.94-5.12-37.73-7.09-58.27-8.63-3.89-.29-7.78-.5-11.67-.69H1.47V66.9A174.59,174.59,0,0,1,23.4,59.7C62.78,49.8,101.85,60.35,139.33,73.51Z"/><path class="cls-2" d="M347,51a128.44,128.44,0,0,1,58.62,20.16L418.62,51Z"/><path class="cls-3" d="M327,51a130.91,130.91,0,0,0-44.83,12.19,236.94,236.94,0,0,1-35,13.23,202.76,202.76,0,0,0,31.93,5.22c24.13,1.94,38.63-3.21,59.49-8.87,42.86-11.65,67-1.61,67-1.61A128.44,128.44,0,0,0,347,51Z"/><path class="cls-4" d="M338.6,72.79c-20.86,5.66-35.36,10.81-59.49,8.87a202.76,202.76,0,0,1-31.93-5.22c-38.62,11-73.87,9-107.85-2.93C101.85,60.35,62.78,49.8,23.4,59.7A174.59,174.59,0,0,0,1.47,66.9h0s101.07,2.5,170.61,19.55S268,103.75,308,93.74s66.41-22.53,97.54-22.56C405.57,71.18,381.46,61.14,338.6,72.79Z"/><path class="cls-5" d="M19.09,20.26c-5.83,0-10.55,3.83-10.55,8.56s4.72,8.57,10.55,8.57,10.56-3.84,10.56-8.57S24.92,20.26,19.09,20.26Zm0,13.59c-3.13,0-5.67-2.26-5.67-5s2.54-5,5.67-5,5.66,2.25,5.66,5S22.23,33.85,19.1,33.85Z"/><path class="cls-5" d="M17.12,16.26h7.56v4.09h4.88V1.93A1.48,1.48,0,0,0,28.06.47H24.68V4.09H17a10,10,0,0,0-7.2-3A9.48,9.48,0,0,0,0,10.26a9.47,9.47,0,0,0,9.75,9.18A10,10,0,0,0,17.12,16.26Zm7.56-8.64v5.11H19.12a8.73,8.73,0,0,0,.37-2.47,8.89,8.89,0,0,0-.41-2.64ZM4.88,10.26c0-3.13,2.17-5.66,4.87-5.66s4.86,2.53,4.86,5.66-2.18,5.66-4.86,5.66S4.88,13.39,4.88,10.26Z"/><path class="cls-5" d="M102.54.48H99.16V24.32a48.74,48.74,0,0,1-10.88,1.34h-15v3.51H85.58c6.74,0,10.79-.83,13.58-1.78V36H104V1.93A1.48,1.48,0,0,0,102.54.48Z"/><path class="cls-5" d="M127.8,13.47h6.26v14.9h4.88V1.94A1.48,1.48,0,0,0,137.43.48h-3.37V10H127.8Z"/><path class="cls-5" d="M119.75,14.9c2.73,4.37,8.54,7.76,8.54,7.76l2.86-2.93c-8.55-5.35-9-9.81-9-14.23V5.43h7.45V1.91h-19.8V5.43h7.46V5.5c.06,4.42-.4,8.88-9,14.23l2.86,2.93S117,19.27,119.75,14.9Z"/><path class="cls-5" d="M121.07,31.14h0V24.85h-4.88v7a4.23,4.23,0,0,0,4.29,4.16h18.78V32.53H122.44A1.42,1.42,0,0,1,121.07,31.14Z"/><path class="cls-5" d="M160.79,20.26c-5.83,0-10.55,3.84-10.55,8.56s4.72,8.57,10.55,8.57,10.55-3.84,10.55-8.57S166.62,20.26,160.79,20.26Zm0,13.6c-3.13,0-5.66-2.26-5.66-5s2.53-5,5.66-5,5.66,2.25,5.66,5S163.93,33.86,160.8,33.86Z"/><path class="cls-5" d="M171.43,8.49V1.94a1.48,1.48,0,0,0-1.5-1.46h-3.38V13.77a81.46,81.46,0,0,1-12.69,1.56c-2.66.07-3.88-.12-3.92-2.64V5.46H162V1.94H145.06V12.79c0,4.35,1.75,6.12,6.29,6.32,3.14.15,10.79-1.07,15.2-2.12v3.37h4.88V12h5.19V8.49Z"/><path class="cls-5" d="M65.49,1.93A1.48,1.48,0,0,0,64,.48H60.61V24.32a48.73,48.73,0,0,1-10.87,1.34h0V21.88a9.35,9.35,0,0,0,7-9,9.19,9.19,0,0,0-2.06-5.81h3.59V3.52H49.7V0H44.82V3.52H36.28V7.05h3.58a9.19,9.19,0,0,0-2.06,5.81,9.35,9.35,0,0,0,7,9v3.79H34.71v3.52H47c6.73,0,10.78-.83,13.57-1.78V36h4.88V15.71H71V12.19H65.49ZM42.68,12.86c0-3.21,2-5.81,4.58-5.81s4.58,2.6,4.58,5.81-2.05,5.82-4.58,5.82S42.68,16.08,42.68,12.86Z"/><path class="cls-5" d="M84.6,21.74A10.32,10.32,0,1,0,74.21,11.43,10.35,10.35,0,0,0,84.6,21.74Zm0-17.1c3,0,5.49,3,5.49,6.79s-2.46,6.78-5.49,6.78-5.5-3-5.5-6.78S81.56,4.64,84.6,4.64Z"/><path class="cls-5" d="M203.42,8.6a2.35,2.35,0,0,0,1.28-2.09V5.25c0-2.07-1.55-3.3-4.14-3.3h-6.69a1.07,1.07,0,0,0-1.16,1V15.51h8.78c2.18,0,3.88-1.41,3.88-3.2V10.92A2.49,2.49,0,0,0,203.42,8.6Zm-7.75-4.23h4.64a1.32,1.32,0,0,1,1.43,1.21v.71c0,.65-.79,1.27-1.62,1.27h-4.45Zm6.75,7.23a1.61,1.61,0,0,1-1.76,1.49h-5V10h5.15c1,0,1.6.5,1.6,1.35Z"/><path class="cls-5" d="M213.21,15.51h7.6a1,1,0,0,0,1-.95V3.06A1.19,1.19,0,0,0,220.52,2h-.45a1.18,1.18,0,0,0-1.25,1.11v10h-5.44a1.51,1.51,0,0,1-1.63-1.35V3.06A1.2,1.2,0,0,0,210.49,2h-.44a1.18,1.18,0,0,0-1.26,1.11V12C208.79,14.06,210.61,15.51,213.21,15.51Z"/><path class="cls-5" d="M237.63,12.15V10.32c0-1.91-1.58-2.76-3.14-2.76h-5.16c-1,0-1.47-.63-1.47-1.08v-1c0-.69.57-1.1,1.53-1.1h5.8a1.15,1.15,0,0,0,1.26-1.06V3A1.15,1.15,0,0,0,235.16,2h-6.31a3.69,3.69,0,0,0-3.95,3.14v1.7a3.29,3.29,0,0,0,3.44,3.05h5.25c1,0,1.08.62,1.08.89v1.09c0,.13,0,1.27-1.08,1.27h-7.46a1.13,1.13,0,0,0-1.26,1.06v.3a1.14,1.14,0,0,0,1.26,1.06H234A3.26,3.26,0,0,0,237.63,12.15Z"/><path class="cls-5" d="M244.58,15.51h7.49a1,1,0,0,0,1.06-1V5.25c0-1.76-1.82-3.3-3.91-3.3h-6.54A1.14,1.14,0,0,0,241.43,3v.3a1.15,1.15,0,0,0,1.29,1.06h5.67c.82,0,1.79.25,1.79,1.46v.85h-5.6c-2.69,0-4.43,1.39-4.43,3.53v1.86C240.15,14.19,241.85,15.51,244.58,15.51Zm-1.47-5.22a1.26,1.26,0,0,1,1.37-1.11h5.7v3.91h-5.7a1.26,1.26,0,0,1-1.37-1.1Z"/><path class="cls-5" d="M258,15.51h.45a1.19,1.19,0,0,0,1.25-1.11v-10h5.44a1.51,1.51,0,0,1,1.63,1.35V14.4A1.18,1.18,0,0,0,268,15.51h.44a1.19,1.19,0,0,0,1.26-1.11v-9c0-2.12-1.7-3.45-4.43-3.45h-7.52a1,1,0,0,0-1,1V14.4A1.18,1.18,0,0,0,258,15.51Z"/><path class="cls-5" d="M283.18,22.47h-6.53a1.14,1.14,0,0,0-1.26,1.06v.3a1.15,1.15,0,0,0,1.29,1.06h5.67c.82,0,1.79.25,1.79,1.46v.85h-5.6c-2.69,0-4.43,1.39-4.43,3.53v1.86c0,2.12,1.7,3.44,4.43,3.44H286a1,1,0,0,0,1.07-1V25.77C287.1,24,285.27,22.47,283.18,22.47Zm1,11.14h-5.7a1.26,1.26,0,0,1-1.37-1.1v-1.7a1.25,1.25,0,0,1,1.37-1.1h5.7Z"/><path class="cls-5" d="M336.21,22.47h-7.52a1,1,0,0,0-1,1V34.92A1.17,1.17,0,0,0,328.91,36h.45a1.19,1.19,0,0,0,1.25-1.11v-10h5.44a1.51,1.51,0,0,1,1.63,1.35v8.68A1.18,1.18,0,0,0,338.94,36h.45a1.19,1.19,0,0,0,1.25-1.11v-9C340.64,23.79,338.94,22.47,336.21,22.47Z"/><path class="cls-5" d="M226.93,22.47H219.4a1,1,0,0,0-1,1V34.92A1.18,1.18,0,0,0,219.63,36h.45a1.19,1.19,0,0,0,1.25-1.11v-10h5.44a1.51,1.51,0,0,1,1.63,1.35v8.68A1.18,1.18,0,0,0,229.65,36h.45a1.2,1.2,0,0,0,1.26-1.11v-9C231.36,23.79,229.66,22.47,226.93,22.47Z"/><path class="cls-5" d="M202.64,33.61h-5.28c-1.26,0-1.85-.45-1.85-1.4V26.38c0-1,.59-1.49,1.82-1.49h5.31a1.13,1.13,0,0,0,1.26-1.06v-.3a1.13,1.13,0,0,0-1.26-1.06h-6.15c-2.17,0-3.94,1.49-3.94,3.33v6.82A3.63,3.63,0,0,0,196.36,36h6.28A1.13,1.13,0,0,0,203.9,35v-.3A1.13,1.13,0,0,0,202.64,33.61Z"/><path class="cls-5" d="M213.46,22.47H208a1.14,1.14,0,0,0-1.25,1.06v.3a1.14,1.14,0,0,0,1.28,1.06h1.22v8.72H208a1.15,1.15,0,0,0-1.25,1.06V35A1.14,1.14,0,0,0,208.07,36h5.42A1.14,1.14,0,0,0,214.75,35v-.3a1.15,1.15,0,0,0-1.29-1.06h-1.21V24.89h1.24a1.15,1.15,0,0,0,1.26-1.06v-.3A1.15,1.15,0,0,0,213.46,22.47Z"/><path class="cls-5" d="M244,22.47h-5c-2.19,0-4,1.48-4,3.3v6.85A3.66,3.66,0,0,0,238.75,36h5.38A1.13,1.13,0,0,0,245.39,35v-.3a1.13,1.13,0,0,0-1.26-1.06h-4.42c-1.18,0-1.79-.46-1.79-1.38V30.36h7.88c1.35,0,2.15-.72,2.15-1.93V25.77C248,24,246.16,22.47,244,22.47Zm1,5.61h-7.07v-2a1.33,1.33,0,0,1,1.44-1.19h4.19A1.33,1.33,0,0,1,245,26.08Z"/><path class="cls-5" d="M266.91,22.47H251.85a1,1,0,0,0-1,1V34.92A1.18,1.18,0,0,0,252.08,36h.44a1.19,1.19,0,0,0,1.26-1.11v-10h5.69v10A1.18,1.18,0,0,0,260.73,36h.44a1.19,1.19,0,0,0,1.26-1.11v-10h4.1a1.55,1.55,0,0,1,1.59,1.37v8.66A1.18,1.18,0,0,0,269.38,36h.44a1.2,1.2,0,0,0,1.26-1.11V25.83C271.08,24.2,269.62,22.47,266.91,22.47Z"/><path class="cls-5" d="M308.25,33.61H303c-1.26,0-1.85-.45-1.85-1.4V26.38c0-1,.6-1.49,1.82-1.49h5.32a1.12,1.12,0,0,0,1.25-1.06v-.3a1.12,1.12,0,0,0-1.25-1.06H302.1c-2.18,0-4,1.49-4,3.33v6.82A3.64,3.64,0,0,0,302,36h6.28A1.12,1.12,0,0,0,309.5,35v-.3A1.12,1.12,0,0,0,308.25,33.61Z"/><path class="cls-5" d="M320.81,22.47h-5c-2.2,0-4,1.48-4,3.3v6.85A3.66,3.66,0,0,0,315.58,36H321A1.13,1.13,0,0,0,322.22,35v-.3A1.13,1.13,0,0,0,321,33.61h-4.42c-1.19,0-1.79-.46-1.79-1.38V30.36h7.87c1.35,0,2.15-.72,2.15-1.93V25.77C324.78,24,323,22.47,320.81,22.47Zm1,5.61h-7.07v-2a1.32,1.32,0,0,1,1.43-1.19h4.2a1.33,1.33,0,0,1,1.44,1.19Z"/><path class="cls-5" d="M354.83,22.47H344a1.14,1.14,0,0,0-1.26,1.06v.3a1.15,1.15,0,0,0,1.29,1.06H348v10A1.18,1.18,0,0,0,349.22,36h.45a1.19,1.19,0,0,0,1.25-1.11v-10h3.94a1.15,1.15,0,0,0,1.25-1.06v-.3A1.14,1.14,0,0,0,354.83,22.47Z"/><path class="cls-5" d="M367.25,22.47h-5c-2.2,0-4,1.48-4,3.3v6.85A3.66,3.66,0,0,0,362,36h5.38A1.13,1.13,0,0,0,368.67,35v-.3a1.13,1.13,0,0,0-1.26-1.06H363c-1.18,0-1.79-.46-1.79-1.38V30.36h7.88c1.35,0,2.15-.72,2.15-1.93V25.77C371.23,24,369.45,22.47,367.25,22.47Zm1,5.61H361.2v-2a1.33,1.33,0,0,1,1.44-1.19h4.2a1.32,1.32,0,0,1,1.43,1.19Z"/><path class="cls-5" d="M384.2,22.47h-3.36a4.7,4.7,0,0,0-2.64.81,1.75,1.75,0,0,1-.85.37.28.28,0,0,1-.3-.16v0c0-.08-.13-.22-.31-.5a1.13,1.13,0,0,0-1-.52h-.49a1,1,0,0,0-1,1v11.5A1.18,1.18,0,0,0,375.52,36H376a1.19,1.19,0,0,0,1.25-1.11V26.35c0-.9.68-1.46,1.76-1.46h5.22a1.12,1.12,0,0,0,1.25-1.06v-.3A1.12,1.12,0,0,0,384.2,22.47Z"/></g></g></svg>