<svg width="421" height="102" viewBox="0 0 421 102" fill="none" xmlns="http://www.w3.org/2000/svg">
<g clip-path="url(#clip0_80_66)">
<path d="M223.77 7.2C224.18 6.99447 224.526 6.68098 224.771 6.29331C225.016 5.90563 225.15 5.45847 225.16 5V3.58C225.16 1.34 223.49 -1.16602e-06 220.68 -1.16602e-06H213.43C213.278 -0.0136849 213.125 0.00298658 212.98 0.0490427C212.834 0.0950988 212.699 0.169619 212.583 0.268266C212.467 0.366913 212.371 0.487715 212.302 0.623639C212.233 0.759564 212.191 0.907896 212.18 1.06V14.69H221.69C224.04 14.69 225.89 13.17 225.89 11.23V9.72C225.862 9.12544 225.64 8.55651 225.257 8.10105C224.874 7.64559 224.351 7.32894 223.77 7.2ZM215.38 2.62H220.38C220.574 2.59351 220.772 2.60721 220.96 2.66025C221.149 2.71328 221.325 2.80451 221.477 2.92829C221.628 3.05207 221.753 3.20574 221.843 3.37978C221.933 3.55381 221.987 3.7445 222 3.94V4.71C222 5.41 221.15 6.08 220.24 6.08H215.38V2.62ZM222.69 10.46C222.674 10.6924 222.611 10.9192 222.505 11.1269C222.4 11.3346 222.254 11.519 222.076 11.6691C221.898 11.8193 221.691 11.9322 221.468 12.001C221.246 12.0699 221.012 12.0933 220.78 12.07H215.38V8.7H221C222.08 8.7 222.73 9.25 222.73 10.16L222.69 10.46Z" fill="#6D6E71"/>
<path d="M234.38 14.69H242.6C242.865 14.69 243.12 14.5847 243.307 14.3972C243.495 14.2096 243.6 13.9553 243.6 13.69V1.21005C243.584 0.876695 243.438 0.562874 243.193 0.336444C242.948 0.110014 242.624 -0.0108292 242.29 4.57806e-05H241.8C241.632 -0.012152 241.463 0.00943471 241.304 0.0635303C241.144 0.117626 240.997 0.203133 240.872 0.315C240.746 0.426866 240.644 0.562822 240.571 0.714836C240.499 0.866849 240.458 1.03184 240.45 1.20005V12.07H234.55C234.124 12.1037 233.702 11.97 233.374 11.6974C233.045 11.4247 232.836 11.0346 232.79 10.61V1.21005C232.781 1.04098 232.739 0.875353 232.665 0.72277C232.592 0.570186 232.489 0.433673 232.363 0.321135C232.236 0.208597 232.089 0.122271 231.928 0.0671553C231.768 0.0120396 231.599 -0.0107706 231.43 4.57806e-05H231C230.831 -0.0135565 230.661 0.00698365 230.501 0.0604399C230.34 0.113896 230.192 0.199172 230.065 0.311176C229.938 0.42318 229.835 0.559615 229.762 0.712334C229.689 0.865054 229.647 1.03093 229.64 1.20005V10.86C229.59 13.12 231.56 14.69 234.38 14.69Z" fill="#6D6E71"/>
<path d="M260.82 11.05V9.05003C260.82 6.98003 259.11 6.05003 257.41 6.05003H251.83C250.73 6.05003 250.24 5.37003 250.24 4.89003V3.82003C250.24 3.07003 250.86 2.62003 251.9 2.62003H258.18C258.345 2.63651 258.511 2.61991 258.669 2.57122C258.827 2.52253 258.973 2.44273 259.1 2.33651C259.227 2.23028 259.331 2.09979 259.407 1.95271C259.482 1.80562 259.527 1.64491 259.54 1.48003V1.15003C259.528 0.981023 259.481 0.816272 259.403 0.665794C259.325 0.515317 259.218 0.382254 259.087 0.274693C258.956 0.167132 258.804 0.0873181 258.642 0.0401023C258.479 -0.00711344 258.308 -0.0207454 258.14 3.48017e-05H251.31C248.56 3.48017e-05 247 2.00003 247 3.40003V5.24003C247.059 6.16862 247.482 7.03653 248.176 7.65598C248.87 8.27543 249.781 8.59661 250.71 8.55003H256.4C257.46 8.55003 257.58 9.22003 257.58 9.55003V10.73C257.58 10.88 257.58 12.11 256.4 12.11H248.36C248.197 12.0907 248.032 12.1043 247.875 12.15C247.718 12.1958 247.571 12.2727 247.444 12.3763C247.317 12.4799 247.213 12.608 247.136 12.753C247.06 12.8979 247.014 13.0568 247 13.22V13.54C247.008 13.7068 247.051 13.87 247.125 14.0196C247.199 14.1692 247.303 14.3021 247.431 14.4099C247.558 14.5177 247.706 14.5982 247.866 14.6463C248.026 14.6945 248.194 14.7094 248.36 14.69H256.93C259.29 14.69 260.82 13.26 260.82 11.05Z" fill="#6D6E71"/>
<path d="M268.34 14.69H276.46C276.606 14.6981 276.751 14.6768 276.889 14.6276C277.026 14.5783 277.152 14.502 277.259 14.4031C277.366 14.3043 277.453 14.1849 277.513 14.0521C277.573 13.9193 277.606 13.7758 277.61 13.63V3.62998C277.61 1.72998 275.61 0.0599846 273.37 0.0599846H266.29C266.126 0.0435211 265.96 0.0601857 265.803 0.108989C265.645 0.157791 265.499 0.237737 265.374 0.344076C265.248 0.450416 265.144 0.58098 265.07 0.728012C264.995 0.875045 264.951 1.03555 264.94 1.19998V1.52998C264.952 1.69769 264.999 1.86115 265.076 2.01042C265.153 2.15969 265.26 2.29165 265.39 2.39828C265.52 2.50492 265.671 2.58399 265.832 2.6307C265.994 2.67741 266.163 2.69077 266.33 2.66998H272.47C273.35 2.66998 274.4 2.94998 274.4 4.24998V5.17998H268.34C265.43 5.17998 263.55 6.67998 263.55 8.99998V11C263.55 13.26 265.38 14.69 268.34 14.69ZM266.75 8.99998C266.793 8.64513 266.972 8.32102 267.251 8.09683C267.529 7.87264 267.884 7.76611 268.24 7.79998H274.4V12.03H268.24C267.886 12.064 267.532 11.9589 267.254 11.7368C266.976 11.5146 266.795 11.193 266.75 10.84V8.99998Z" fill="#6D6E71"/>
<path d="M282.87 14.69H283.36C283.701 14.7092 284.035 14.5926 284.29 14.3658C284.545 14.139 284.699 13.8206 284.72 13.48V2.62002H290.61C291.037 2.58649 291.461 2.72154 291.79 2.99628C292.119 3.27102 292.327 3.66361 292.37 4.09002V13.48C292.379 13.6491 292.421 13.8147 292.495 13.9673C292.568 14.1199 292.671 14.2564 292.797 14.3689C292.924 14.4815 293.071 14.5678 293.232 14.6229C293.392 14.678 293.561 14.7008 293.73 14.69H294.22C294.388 14.6995 294.557 14.6756 294.715 14.6199C294.874 14.5642 295.021 14.4776 295.146 14.3652C295.272 14.2528 295.374 14.1167 295.446 13.9649C295.519 13.813 295.561 13.6482 295.57 13.48V3.73002C295.57 1.43002 293.74 1.94092e-05 290.78 1.94092e-05H282.63C282.485 -0.0162137 282.339 -0.000707179 282.201 0.0454572C282.063 0.0916216 281.937 0.167332 281.831 0.267306C281.726 0.36728 281.643 0.48911 281.589 0.624297C281.535 0.759483 281.512 0.904769 281.52 1.05002V13.48C281.528 13.6486 281.569 13.814 281.641 13.9666C281.713 14.1191 281.815 14.2557 281.941 14.3683C282.067 14.481 282.214 14.5675 282.373 14.6227C282.533 14.6779 282.702 14.7008 282.87 14.69Z" fill="#6D6E71"/>
<path d="M310.15 22.23H303.07C302.905 22.2136 302.739 22.2302 302.581 22.2789C302.423 22.3276 302.277 22.4074 302.15 22.5136C302.023 22.6198 301.919 22.7503 301.843 22.8974C301.768 23.0445 301.723 23.2052 301.71 23.37V23.7C301.722 23.8691 301.769 24.0338 301.847 24.1843C301.925 24.3348 302.032 24.4678 302.163 24.5754C302.294 24.683 302.446 24.7628 302.608 24.81C302.771 24.8572 302.942 24.8708 303.11 24.85H309.24C310.13 24.85 311.18 25.12 311.18 26.43V27.35H305.12C302.21 27.35 300.32 28.85 300.32 31.17V33.17C300.32 35.46 302.16 36.89 305.12 36.89H313.23C313.376 36.8995 313.522 36.8793 313.66 36.8306C313.798 36.7818 313.925 36.7056 314.032 36.6064C314.14 36.5073 314.226 36.3874 314.286 36.2539C314.346 36.1205 314.378 35.9763 314.38 35.8301V25.83C314.38 23.9 312.4 22.23 310.15 22.23ZM311.15 34.29H305C304.647 34.3239 304.294 34.2185 304.018 33.9962C303.741 33.7738 303.563 33.4523 303.52 33.1V31.26C303.56 30.906 303.738 30.582 304.015 30.3576C304.292 30.1331 304.645 30.0263 305 30.06H311.17L311.15 34.29Z" fill="#6D6E71"/>
<path d="M367.57 22.2301H359.42C359.275 22.2136 359.127 22.2294 358.989 22.2761C358.85 22.3228 358.723 22.3995 358.617 22.5005C358.511 22.6016 358.429 22.7248 358.376 22.8612C358.323 22.9976 358.3 23.144 358.31 23.2901V35.7101C358.319 35.8778 358.361 36.0422 358.434 36.1935C358.507 36.3449 358.609 36.4803 358.734 36.5919C358.86 36.7035 359.006 36.7891 359.165 36.8437C359.324 36.8983 359.492 36.9209 359.66 36.9101H360.15C360.489 36.9293 360.822 36.8141 361.076 36.5894C361.331 36.3648 361.487 36.0488 361.51 35.7101V24.8501H367.4C367.826 24.8138 368.25 24.9465 368.579 25.2197C368.908 25.4928 369.117 25.8844 369.16 26.3101V35.7101C369.17 35.8783 369.213 36.0428 369.287 36.1942C369.361 36.3457 369.464 36.481 369.591 36.5925C369.717 36.704 369.864 36.7894 370.024 36.8439C370.183 36.8984 370.352 36.9209 370.52 36.9101H371C371.338 36.9267 371.67 36.8106 371.924 36.5864C372.178 36.3623 372.334 36.0479 372.36 35.7101V26.0001C372.37 23.6501 370.53 22.2301 367.57 22.2301Z" fill="#6D6E71"/>
<path d="M249.23 22.23H241.08C240.939 22.2274 240.799 22.2528 240.668 22.3049C240.537 22.357 240.418 22.4347 240.318 22.5334C240.217 22.632 240.137 22.7498 240.083 22.8797C240.028 23.0097 240 23.1491 240 23.29V35.71C240.01 35.8783 240.053 36.0428 240.127 36.1942C240.201 36.3457 240.304 36.481 240.431 36.5925C240.557 36.704 240.704 36.7894 240.864 36.8439C241.023 36.8984 241.192 36.9209 241.36 36.91H241.85C242.189 36.9293 242.522 36.8141 242.776 36.5894C243.031 36.3648 243.187 36.0488 243.21 35.71V24.85H249.1C249.526 24.8138 249.95 24.9465 250.279 25.2196C250.608 25.4928 250.817 25.8844 250.86 26.31V35.71C250.87 35.8783 250.913 36.0428 250.987 36.1942C251.061 36.3457 251.164 36.481 251.291 36.5925C251.417 36.704 251.564 36.7894 251.724 36.8439C251.883 36.8984 252.052 36.9209 252.22 36.91H252.71C253.036 36.9085 253.35 36.7842 253.589 36.5619C253.828 36.3396 253.975 36.0355 254 35.71V26C254 23.65 252.19 22.23 249.23 22.23Z" fill="#6D6E71"/>
<path d="M222.93 34.29H217.21C215.84 34.29 215.21 33.81 215.21 32.77V26.46C215.21 25.37 215.85 24.85 217.21 24.85H222.97C223.136 24.8694 223.304 24.8545 223.464 24.8063C223.624 24.7581 223.772 24.6776 223.899 24.5698C224.027 24.462 224.131 24.3292 224.205 24.1796C224.279 24.03 224.322 23.8667 224.33 23.7V23.37C224.32 23.2041 224.277 23.042 224.202 22.8935C224.127 22.7451 224.023 22.6135 223.896 22.5067C223.768 22.4 223.621 22.3204 223.461 22.2728C223.302 22.2252 223.135 22.2106 222.97 22.23H216.27C213.92 22.23 212 23.84 212 25.83V33.22C212.064 34.2547 212.534 35.2223 213.307 35.9131C214.08 36.6038 215.095 36.962 216.13 36.91H222.93C223.096 36.9294 223.264 36.9145 223.424 36.8663C223.584 36.8181 223.732 36.7376 223.859 36.6298C223.987 36.522 224.091 36.3892 224.165 36.2396C224.239 36.09 224.282 35.9267 224.29 35.76V35.44C224.282 35.2732 224.239 35.11 224.165 34.9604C224.091 34.8108 223.987 34.678 223.859 34.5702C223.732 34.4624 223.584 34.3819 223.424 34.3337C223.264 34.2855 223.096 34.2706 222.93 34.29Z" fill="#6D6E71"/>
<path d="M234.65 22.2301H228.78C228.615 22.2122 228.449 22.2278 228.29 22.2759C228.131 22.3241 227.984 22.4038 227.857 22.5103C227.73 22.6167 227.626 22.7478 227.551 22.8956C227.476 23.0433 227.431 23.2047 227.42 23.3701V23.7001C227.431 23.8687 227.476 24.0332 227.553 24.1837C227.63 24.3341 227.737 24.4672 227.867 24.5749C227.997 24.6826 228.148 24.7626 228.31 24.8099C228.472 24.8572 228.642 24.8709 228.81 24.8501H230.13V34.2901H228.78C228.614 34.2722 228.447 34.2881 228.288 34.3369C228.128 34.3856 227.981 34.4662 227.854 34.5737C227.726 34.6813 227.622 34.8135 227.548 34.9624C227.473 35.1113 227.43 35.2738 227.42 35.4401V35.7601C227.431 35.9287 227.476 36.0932 227.553 36.2437C227.63 36.3941 227.737 36.5272 227.867 36.6349C227.997 36.7426 228.148 36.8226 228.31 36.8699C228.472 36.9172 228.642 36.9309 228.81 36.9101H234.68C235.007 36.9321 235.33 36.8234 235.578 36.6078C235.825 36.3923 235.977 36.0874 236 35.7601V35.4401C235.988 35.272 235.941 35.1082 235.864 34.9585C235.787 34.8087 235.68 34.6762 235.55 34.5687C235.42 34.4613 235.27 34.3812 235.109 34.3334C234.947 34.2855 234.777 34.2708 234.61 34.2901H233.34V24.8501H234.68C235.007 24.8694 235.328 24.7598 235.575 24.5448C235.822 24.3297 235.974 24.0264 236 23.7001V23.3701C235.987 23.2061 235.942 23.0463 235.867 22.9C235.793 22.7536 235.689 22.6236 235.564 22.5175C235.438 22.4114 235.293 22.3313 235.136 22.282C234.979 22.2327 234.814 22.215 234.65 22.2301Z" fill="#6D6E71"/>
<path d="M267.69 22.23H262.24C259.86 22.23 257.93 23.83 257.93 25.8V33.22C258.009 34.2384 258.475 35.1881 259.231 35.8742C259.988 36.5603 260.979 36.9309 262 36.91H267.83C267.996 36.9294 268.164 36.9145 268.324 36.8663C268.484 36.8181 268.632 36.7376 268.759 36.6298C268.887 36.522 268.991 36.3892 269.065 36.2396C269.139 36.09 269.182 35.9267 269.19 35.76V35.44C269.182 35.2732 269.139 35.11 269.065 34.9604C268.991 34.8108 268.887 34.6779 268.759 34.5701C268.632 34.4623 268.484 34.3819 268.324 34.3337C268.164 34.2855 267.996 34.2706 267.83 34.29H263.07C261.79 34.29 261.13 33.79 261.13 32.8V30.8H269.66C269.96 30.8526 270.268 30.836 270.561 30.7515C270.853 30.667 271.123 30.5167 271.348 30.3122C271.574 30.1077 271.75 29.8544 271.863 29.5715C271.976 29.2886 272.023 28.9837 272 28.68V25.8C272 23.83 270.06 22.23 267.69 22.23ZM268.79 28.3H261.13V26.13C261.17 25.7548 261.357 25.4104 261.648 25.171C261.94 24.9316 262.314 24.8164 262.69 24.85H267.23C267.606 24.8164 267.98 24.9316 268.272 25.171C268.563 25.4104 268.75 25.7548 268.79 26.13V28.3Z" fill="#6D6E71"/>
<path d="M292.52 22.23H276.22C276.075 22.2203 275.931 22.2407 275.794 22.2897C275.658 22.3388 275.533 22.4155 275.428 22.5151C275.323 22.6146 275.24 22.7348 275.183 22.8682C275.127 23.0016 275.098 23.1452 275.1 23.29V35.71C275.11 35.8782 275.153 36.0427 275.227 36.1942C275.301 36.3456 275.404 36.481 275.531 36.5924C275.657 36.7039 275.804 36.7894 275.964 36.8439C276.123 36.8984 276.292 36.9208 276.46 36.91H277C277.339 36.9292 277.672 36.814 277.926 36.5894C278.181 36.3647 278.337 36.0487 278.36 35.71V24.85H284.52V35.71C284.53 35.8782 284.573 36.0427 284.647 36.1942C284.721 36.3456 284.824 36.481 284.951 36.5924C285.077 36.7039 285.224 36.7894 285.384 36.8439C285.543 36.8984 285.712 36.9208 285.88 36.91H286.36C286.699 36.9292 287.032 36.814 287.286 36.5894C287.541 36.3647 287.697 36.0487 287.72 35.71V24.85H292.16C292.581 24.8373 292.992 24.9834 293.311 25.2594C293.629 25.5354 293.833 25.9211 293.88 26.34V35.71C293.89 35.8782 293.933 36.0427 294.007 36.1942C294.081 36.3456 294.184 36.481 294.311 36.5924C294.437 36.7039 294.584 36.7894 294.744 36.8439C294.903 36.8984 295.072 36.9208 295.24 36.91H295.73C296.054 36.9058 296.364 36.78 296.599 36.5578C296.834 36.3355 296.977 36.0329 297 35.71V25.86C297 24.1 295.46 22.23 292.52 22.23Z" fill="#6D6E71"/>
<path d="M337.29 34.29H331.57C330.2 34.29 329.57 33.81 329.57 32.77V26.46C329.57 25.37 330.21 24.85 331.57 24.85H337.33C337.495 24.8694 337.663 24.8545 337.822 24.8062C337.981 24.7579 338.129 24.6773 338.256 24.5694C338.382 24.4614 338.486 24.3285 338.559 24.1789C338.632 24.0293 338.673 23.8663 338.68 23.7V23.37C338.672 23.2046 338.629 23.0426 338.556 22.8942C338.482 22.7458 338.379 22.6141 338.252 22.5072C338.126 22.4003 337.979 22.3206 337.82 22.2729C337.661 22.2252 337.495 22.2106 337.33 22.23H330.67C328.31 22.23 326.4 23.84 326.4 25.83V33.22C326.462 34.2557 326.931 35.2248 327.705 35.9161C328.478 36.6074 329.494 36.9646 330.53 36.91H337.33C337.495 36.9294 337.663 36.9145 337.822 36.8662C337.981 36.8179 338.129 36.7373 338.256 36.6294C338.382 36.5214 338.486 36.3885 338.559 36.2389C338.632 36.0893 338.673 35.9263 338.68 35.76V35.44C338.673 35.2698 338.631 35.103 338.556 34.9503C338.48 34.7977 338.373 34.6626 338.242 34.5541C338.111 34.4456 337.958 34.3659 337.794 34.3204C337.63 34.2749 337.458 34.2645 337.29 34.29Z" fill="#6D6E71"/>
<path d="M350.89 22.23H345.44C343.07 22.23 341.13 23.83 341.13 25.8V33.22C341.209 34.2437 341.679 35.1978 342.442 35.8847C343.205 36.5716 344.204 36.9387 345.23 36.91H351.06C351.226 36.9294 351.394 36.9145 351.554 36.8663C351.714 36.8181 351.862 36.7376 351.989 36.6298C352.117 36.522 352.221 36.3892 352.295 36.2396C352.369 36.09 352.412 35.9267 352.42 35.76V35.44C352.412 35.2732 352.369 35.11 352.295 34.9604C352.221 34.8108 352.117 34.6779 351.989 34.5701C351.862 34.4623 351.714 34.3819 351.554 34.3337C351.394 34.2855 351.226 34.2706 351.06 34.29H346.27C344.99 34.29 344.34 33.79 344.34 32.8V30.8H352.87C353.167 30.8487 353.471 30.8299 353.759 30.7449C354.048 30.6599 354.313 30.511 354.536 30.3092C354.759 30.1074 354.934 29.8579 355.047 29.5793C355.16 29.3007 355.209 29.0001 355.19 28.7V25.8C355.19 23.83 353.26 22.23 350.89 22.23ZM352 28.3H344.35V26.13C344.388 25.7556 344.572 25.4113 344.862 25.1717C345.152 24.9321 345.525 24.8165 345.9 24.85H350.45C350.824 24.8191 351.196 24.9357 351.485 25.1748C351.775 25.4139 351.96 25.7566 352 26.13V28.3Z" fill="#6D6E71"/>
<path d="M387.73 22.2301H376C375.835 22.2122 375.669 22.2278 375.51 22.2759C375.351 22.3241 375.204 22.4038 375.077 22.5103C374.95 22.6167 374.846 22.7478 374.771 22.8956C374.696 23.0433 374.651 23.2047 374.64 23.3701V23.7001C374.651 23.8687 374.696 24.0332 374.773 24.1837C374.85 24.3341 374.957 24.4672 375.087 24.5749C375.217 24.6826 375.368 24.7626 375.53 24.8099C375.692 24.8572 375.862 24.8709 376.03 24.8501H380.26V35.7101C380.269 35.8778 380.311 36.0422 380.384 36.1935C380.457 36.3449 380.559 36.4803 380.684 36.5919C380.81 36.7035 380.957 36.7891 381.115 36.8437C381.274 36.8984 381.442 36.9209 381.61 36.9101H382.1C382.439 36.9293 382.772 36.8141 383.027 36.5894C383.281 36.3648 383.437 36.0488 383.46 35.7101V24.8501H387.72C387.885 24.8652 388.051 24.8472 388.21 24.7974C388.368 24.7476 388.514 24.6668 388.641 24.5598C388.767 24.4527 388.871 24.3216 388.947 24.174C389.022 24.0265 389.067 23.8654 389.08 23.7001V23.3701C389.067 23.2061 389.022 23.0463 388.947 22.9C388.873 22.7536 388.769 22.6236 388.644 22.5175C388.518 22.4114 388.373 22.3313 388.216 22.282C388.059 22.2327 387.894 22.215 387.73 22.2301Z" fill="#6D6E71"/>
<path d="M401.18 22.23H395.74C393.36 22.23 391.43 23.83 391.43 25.8V33.22C391.509 34.2437 391.979 35.1978 392.742 35.8847C393.505 36.5716 394.504 36.9387 395.53 36.91H401.36C401.526 36.9279 401.693 36.912 401.852 36.8632C402.011 36.8144 402.159 36.7339 402.286 36.6263C402.413 36.5188 402.517 36.3866 402.592 36.2376C402.667 36.0887 402.71 35.9262 402.72 35.76V35.44C402.71 35.2737 402.667 35.1112 402.592 34.9623C402.517 34.8134 402.413 34.6812 402.286 34.5736C402.159 34.4661 402.011 34.3855 401.852 34.3368C401.693 34.288 401.526 34.2721 401.36 34.29H396.57C395.29 34.29 394.63 33.79 394.63 32.8V30.8H403.16C403.457 30.8504 403.762 30.8328 404.052 30.7486C404.342 30.6644 404.609 30.5157 404.833 30.3137C405.057 30.1117 405.233 29.8616 405.346 29.5821C405.46 29.3027 405.509 29.0011 405.49 28.7V25.8C405.49 23.83 403.56 22.23 401.18 22.23ZM402.29 28.3H394.63V26.13C394.67 25.7548 394.856 25.4104 395.148 25.171C395.44 24.9316 395.814 24.8164 396.19 24.85H400.73C401.106 24.8164 401.48 24.9316 401.772 25.171C402.063 25.4104 402.25 25.7548 402.29 26.13V28.3Z" fill="#6D6E71"/>
<path d="M419.54 22.2301H415.89C414.873 22.2266 413.878 22.5336 413.04 23.1101C412.768 23.3174 412.448 23.4516 412.11 23.5001C412.047 23.5117 411.981 23.5011 411.925 23.4702C411.868 23.4392 411.824 23.3897 411.8 23.3301C411.8 23.2501 411.66 23.1001 411.46 22.7901C411.352 22.6219 411.204 22.483 411.03 22.3853C410.855 22.2877 410.66 22.2344 410.46 22.2301H409.94C409.662 22.2216 409.391 22.3208 409.184 22.5072C408.977 22.6935 408.85 22.9524 408.83 23.2301V35.7101C408.839 35.8778 408.881 36.0421 408.954 36.1935C409.027 36.3449 409.129 36.4803 409.254 36.5919C409.38 36.7035 409.526 36.7891 409.685 36.8437C409.844 36.8983 410.012 36.9209 410.18 36.9101H410.67C411.009 36.9293 411.342 36.8141 411.596 36.5894C411.851 36.3648 412.007 36.0488 412.03 35.7101V26.4301C412.03 25.4301 412.76 24.8501 413.93 24.8501H419.59C419.755 24.868 419.922 24.852 420.081 24.8031C420.239 24.7543 420.386 24.6735 420.513 24.5659C420.639 24.4582 420.742 24.3259 420.816 24.177C420.889 24.0282 420.931 23.8659 420.94 23.7001V23.3701C420.931 23.2003 420.886 23.0344 420.809 22.8829C420.732 22.7314 420.624 22.5977 420.492 22.4904C420.36 22.3831 420.207 22.3045 420.044 22.2596C419.88 22.2148 419.708 22.2047 419.54 22.2301Z" fill="#6D6E71"/>
</g>
<g clip-path="url(#clip1_80_66)">
<path d="M196.26 61.32C212.26 65.41 229.11 72.42 249.62 77.41C261.615 73.9274 273.318 69.5071 284.62 64.19C298.71 57.4867 313.886 53.3583 329.43 52L126.34 52C130.23 52.19 134.12 52.4 138.01 52.69C158.54 54.23 176.33 56.2 196.26 61.32Z" fill="#80C341"/>
<path d="M141.81 74.48C175.81 86.41 211.01 88.48 249.62 77.41C229.11 72.41 212.21 65.41 196.26 61.32C176.33 56.2 158.54 54.23 138 52.69C134.12 52.4 130.23 52.19 126.34 52H4V67.87C11.14 64.9922 18.4627 62.5903 25.92 60.68C65.28 50.78 104.34 61.33 141.81 74.48Z" fill="#EC008C"/>
<path d="M349.36 52C370.259 53.8285 390.392 60.7466 408 72.15L421 52H349.36Z" fill="#EC008C"/>
<path d="M329.43 52C313.886 53.3583 298.71 57.4867 284.62 64.19C273.318 69.5071 261.615 73.9274 249.62 77.41C260.104 79.9978 270.778 81.7433 281.54 82.63C305.66 84.56 320.16 79.42 341.01 73.76C383.86 62.12 408 72.15 408 72.15C390.392 60.7466 370.259 53.8285 349.36 52L329.43 52Z" fill="#00AEEF"/>
<path d="M341 73.7599C320.15 79.4199 305.65 84.5599 281.53 82.6299C270.768 81.7432 260.094 79.9977 249.61 77.4099C211 88.4099 175.76 86.4099 141.8 74.4799C104.34 61.3299 65.28 50.7799 25.92 60.6799C18.4627 62.5902 11.14 64.9921 4 67.8699C4 67.8699 105 70.3699 174.54 87.4199C244.08 104.47 270.42 104.7 310.45 94.6999C350.48 84.6999 376.83 72.1799 408 72.1499C408 72.1499 383.86 62.1199 341 73.7599Z" fill="#2E3092"/>
</g>
<g clip-path="url(#clip2_80_66)">
<path d="M20.67 21.9301C14.36 21.9301 9.25 26.0901 9.25 31.2101C9.25 36.3301 14.36 40.4801 20.67 40.4801C26.98 40.4801 32.1 36.3301 32.1 31.2101C32.1 26.0901 27 21.9301 20.67 21.9301ZM20.67 36.6601C17.29 36.6601 14.54 34.2101 14.54 31.2001C14.54 28.1901 17.29 25.7501 20.67 25.7501C24.05 25.7501 26.8 28.1901 26.8 31.2001C26.8 34.2101 24.07 36.6601 20.68 36.6601H20.67Z" fill="#6D6E71"/>
<path d="M18.53 17.61H26.72V22H32V2.09004C31.9921 1.66653 31.8176 1.26318 31.5144 0.967427C31.2112 0.671673 30.8036 0.507338 30.38 0.510043H26.72V4.43004H18.36C17.3461 3.38915 16.1329 2.56316 14.7927 2.00135C13.4526 1.43953 12.0131 1.15341 10.56 1.16004C4.72 1.16004 0 5.62004 0 11.11C0 16.6 4.72 21.11 10.56 21.11C12.0586 21.1115 13.5411 20.8011 14.9132 20.1986C16.2854 19.596 17.5171 18.7145 18.53 17.61ZM26.72 8.25004V13.79H20.72C20.9775 12.9199 21.1088 12.0174 21.11 11.11C21.1126 10.1397 20.9642 9.17477 20.67 8.25004H26.72ZM5.28 11.11C5.28 7.73004 7.63 5.00004 10.55 5.00004C13.47 5.00004 15.82 7.75004 15.82 11.13C15.82 14.51 13.46 17.26 10.55 17.26C7.64 17.26 5.28 14.5 5.28 11.11Z" fill="#6D6E71"/>
<path d="M111 0.520056H107.34V26.3301C103.478 27.2603 99.5223 27.7467 95.55 27.7801H79.29V31.5801H92.67C99.97 31.5801 104.36 30.6801 107.38 29.6601V39.0001H112.66V2.09006C112.656 1.87733 112.61 1.66751 112.524 1.47287C112.438 1.27823 112.314 1.10267 112.16 0.956477C112.005 0.810283 111.823 0.696386 111.624 0.621449C111.425 0.546513 111.213 0.512043 111 0.520056Z" fill="#6D6E71"/>
<path d="M138.4 14.59H145.16V30.72H150.45V2.10003C150.442 1.67476 150.266 1.2699 149.961 0.973863C149.655 0.677826 149.245 0.514668 148.82 0.520025H145.16V10.78H138.4V14.59Z" fill="#6D6E71"/>
<path d="M129.68 16.1401C132.63 20.8701 138.92 24.5401 138.92 24.5401L142.02 21.3701C132.76 15.5701 132.26 10.7401 132.32 5.95006V5.88006H140.4V2.06006H119V5.88006H127V6.00006C127.07 10.7901 126.56 15.6201 117.31 21.4201L120.4 24.5901C120.4 24.5901 126.72 20.8701 129.68 16.1401Z" fill="#6D6E71"/>
<path d="M131.1 33.72V26.91H125.82V34.53C125.846 35.7386 126.35 36.8876 127.222 37.7254C128.093 38.5631 129.261 39.0215 130.47 39H150.8V35.22H132.58C132.188 35.2073 131.816 35.0446 131.541 34.7654C131.265 34.4863 131.107 34.1121 131.1 33.72Z" fill="#6D6E71"/>
<path d="M174.11 21.9399C167.81 21.9399 162.69 26.0999 162.69 31.2099C162.69 36.3199 167.81 40.4899 174.11 40.4899C180.41 40.4899 185.54 36.3399 185.54 31.2099C185.54 26.0799 180.43 21.9399 174.11 21.9399ZM174.11 36.6699C170.73 36.6699 167.98 34.2199 167.98 31.2099C167.98 28.1999 170.73 25.7599 174.11 25.7599C177.49 25.7599 180.25 28.1899 180.25 31.2099C180.25 34.2299 177.52 36.6699 174.12 36.6699H174.11Z" fill="#6D6E71"/>
<path d="M185.64 9.20006V2.10006C185.636 1.88862 185.591 1.68002 185.506 1.48618C185.422 1.29234 185.3 1.11705 185.147 0.970322C184.995 0.823598 184.815 0.708315 184.618 0.631058C184.422 0.553801 184.211 0.516084 184 0.52006H180.34V14.9101C175.812 15.8353 171.217 16.4004 166.6 16.6001C163.72 16.6701 162.39 16.4701 162.36 13.7401V5.91006H175.36V2.10006H157.08V13.8501C157.08 18.5701 158.98 20.4801 163.89 20.7001C167.29 20.8501 175.58 19.5401 180.35 18.4001V22.0001H185.64V13.0001H191.25V9.20006H185.64Z" fill="#6D6E71"/>
<path d="M70.91 2.09C70.9021 1.66739 70.7273 1.26507 70.4238 0.970909C70.1203 0.676747 69.7127 0.514643 69.29 0.52H65.63V26.34C61.7737 27.2631 57.8252 27.7462 53.86 27.78V23.69C56.028 23.1315 57.9501 21.8712 59.3267 20.1056C60.7033 18.3401 61.4569 16.1687 61.47 13.93C61.4683 11.6352 60.6774 9.41077 59.23 7.63H63.11V3.82H53.82V0H48.54V3.82H39.28V7.63H43.17C41.7226 9.41077 40.9317 11.6352 40.93 13.93C40.9414 16.1691 41.6944 18.3414 43.0713 20.1073C44.4481 21.8731 46.3712 23.133 48.54 23.69V27.8H37.59V31.61H50.94C58.22 31.61 62.61 30.71 65.63 29.68V39H70.91V17H76.91V13.2H70.91V2.09ZM46.22 13.93C46.22 10.45 48.43 7.63 51.22 7.63C54.01 7.63 56.22 10.45 56.22 13.93C56.22 17.41 54 20.23 51.22 20.23C48.44 20.23 46.22 17.41 46.22 13.93Z" fill="#6D6E71"/>
<path d="M91.61 23.55C93.8181 23.5361 95.9728 22.8687 97.8021 21.6319C99.6314 20.395 101.053 18.6441 101.889 16.6001C102.724 14.556 102.936 12.3103 102.497 10.1463C102.057 7.98219 100.987 5.99666 99.4207 4.4401C97.8544 2.88355 95.8623 1.82569 93.6955 1.39995C91.5287 0.974207 89.2844 1.19966 87.2456 2.04786C85.2068 2.89607 83.4648 4.32904 82.2394 6.16603C81.014 8.00303 80.36 10.1618 80.36 12.37C80.3639 13.8429 80.6581 15.3007 81.2257 16.6599C81.7933 18.0191 82.6233 19.2531 83.6681 20.2914C84.7128 21.3297 85.952 22.1519 87.3147 22.711C88.6775 23.2702 90.137 23.5552 91.61 23.55ZM91.61 4.99997C94.89 4.99997 97.55 8.29997 97.55 12.36C97.55 16.42 94.89 19.7 91.61 19.7C88.33 19.7 85.61 16.41 85.61 12.36C85.61 8.30997 88.32 4.99997 91.61 4.99997Z" fill="#6D6E71"/>
</g>
<defs>
<clipPath id="clip0_80_66">
<rect width="208.89" height="36.91" fill="white" transform="translate(212)"/>
</clipPath>
<clipPath id="clip1_80_66">
<rect width="417" height="49.41" fill="white" transform="translate(4 52)"/>
</clipPath>
<clipPath id="clip2_80_66">
<rect width="191.25" height="40.49" fill="white"/>
</clipPath>
</defs>
</svg>
