<svg width="20" height="21" viewBox="0 0 20 21" fill="none" xmlns="http://www.w3.org/2000/svg">
<path d="M0.142857 6.01971L9.85714 0.571677C9.92857 0.499993 10.0714 0.499993 10.1429 0.571677L19.8571 6.01971C19.9286 6.09139 20 6.16308 20 6.30644V20.2133C20 20.3566 19.8571 20.5 19.7143 20.5H13.6429C13.5 20.5 13.3571 20.3566 13.3571 20.2133V13.69C13.3571 13.5466 13.2143 13.4032 13.0714 13.4032H7C6.85714 13.4032 6.71429 13.5466 6.71429 13.69V20.2133C6.71429 20.3566 6.57143 20.5 6.42857 20.5H0.285714C0.142857 20.5 0 20.3566 0 20.2133V6.30644C0 6.16308 0.0714286 6.09139 0.142857 6.01971Z" fill="#BDBDBD"/>
</svg>
