<svg width="28" height="28" viewBox="0 0 28 28" fill="none" xmlns="http://www.w3.org/2000/svg">
<g clip-path="url(#clip0_240_6309)">
<path d="M22.2004 11.3C21.2004 10.1 18.1004 11.1 15.4004 13.5C12.7004 15.9 11.4004 18.8 12.4004 20C13.4004 21.1 27.1004 28.3 27.9004 27.7C28.7004 27 23.1004 12.3 22.2004 11.3ZM18.6004 17.1C16.4004 19 14.1004 19.9 13.3004 19.1C12.6004 18.3 13.7004 16.1 15.9004 14.1C18.1004 12.2 20.4004 11.3 21.2004 12.1C22.0004 13 20.8004 15.2 18.6004 17.1Z" fill="#616161"/>
<path d="M5.10018 21.5C4.50018 21.5 4.00018 21.2 3.60018 20.5C2.90018 18.9 3.60018 17.4 5.50018 16.4C8.00018 15 13.0002 14.9 15.1002 18.2C15.2002 18.4 15.2002 18.7 14.9002 18.9C14.7002 19 14.4002 19 14.2002 18.7C12.5002 15.9 8.20018 15.9 5.90018 17.2C5.10018 17.6 3.80018 18.6 4.50018 20C4.70018 20.5 5.10018 20.5 5.30018 20.4C5.60018 20.2 6.10018 19.8 5.80018 19.2C5.70018 19 5.80018 18.7 6.10018 18.6C6.30018 18.5 6.60018 18.6 6.70018 18.9C7.10018 19.9 6.50018 21 5.70018 21.3C5.50018 21.5 5.30018 21.5 5.10018 21.5Z" fill="#9E9E9E"/>
<path d="M19.6001 13.1C19.4001 13.1 19.2001 13 19.1001 12.8C19.0001 12.5 16.3001 5 17.9001 2.2C18.2001 1.6 18.7001 1.2 19.4001 1.1C20.6001 0.799996 21.3001 1.3 21.6001 1.7C22.0001 2.2 22.1001 2.8 21.9001 3.4C21.7001 4 21.2001 4.4 20.5001 4.5C20.2001 4.5 20.0001 4.4 19.9001 4.1C19.9001 3.8 20.0001 3.6 20.3001 3.5C20.6001 3.5 20.8001 3.3 20.9001 3C21.0001 2.8 20.9001 2.5 20.8001 2.3C20.5001 2 20.1001 1.9 19.5001 2C19.1001 2.1 18.9001 2.3 18.7001 2.6C17.6001 4.6 19.3001 10.4 20.0001 12.4C20.1001 12.7 20.0001 12.9 19.7001 13C19.7001 13.1 19.6001 13.1 19.6001 13.1Z" fill="#9E9E9E"/>
<path d="M12.0002 14.3C11.9002 14.3 11.8002 14.3 11.7002 14.2C11.6002 14.1 4.80023 8.7 0.800228 11.9C0.600228 12.1 0.300228 12 0.100228 11.8C-0.0997721 11.6 0.000227928 11.3 0.200228 11.1C4.80023 7.4 12.0002 13.1 12.3002 13.4C12.5002 13.6 12.5002 13.9 12.4002 14.1C12.3002 14.2 12.1002 14.3 12.0002 14.3Z" fill="#9E9E9E"/>
<path d="M11.2 3.49999C11.8627 3.49999 12.4 2.96273 12.4 2.29999C12.4 1.63725 11.8627 1.09999 11.2 1.09999C10.5373 1.09999 10 1.63725 10 2.29999C10 2.96273 10.5373 3.49999 11.2 3.49999Z" fill="#616161"/>
<path d="M14.2004 12.9C14.6422 12.9 15.0004 12.5418 15.0004 12.1C15.0004 11.6582 14.6422 11.3 14.2004 11.3C13.7586 11.3 13.4004 11.6582 13.4004 12.1C13.4004 12.5418 13.7586 12.9 14.2004 12.9Z" fill="#616161"/>
<path d="M17 14.8C17.2761 14.8 17.5 14.5761 17.5 14.3C17.5 14.0238 17.2761 13.8 17 13.8C16.7239 13.8 16.5 14.0238 16.5 14.3C16.5 14.5761 16.7239 14.8 17 14.8Z" fill="#616161"/>
<path d="M13.6003 4.3C14.0421 4.3 14.4003 3.94182 14.4003 3.5C14.4003 3.05817 14.0421 2.7 13.6003 2.7C13.1585 2.7 12.8003 3.05817 12.8003 3.5C12.8003 3.94182 13.1585 4.3 13.6003 4.3Z" fill="#616161"/>
<path d="M7.70002 7.2C7.70002 7.4 7.60002 7.4 7.50002 7.3L6.30002 6.5C6.10002 6.4 5.90002 6.4 5.80002 6.4L4.40002 6.9C4.20002 7 4.10002 6.9 4.20002 6.7L4.60002 5.3C4.60002 5.1 4.60002 4.9 4.50002 4.8L3.60002 3.6C3.50002 3.5 3.60002 3.4 3.70002 3.4H5.20001C5.40001 3.4 5.60002 3.3 5.70002 3.2L6.50002 2C6.60002 1.9 6.70002 1.9 6.80002 2L7.30002 3.4C7.40002 3.6 7.50002 3.7 7.70002 3.8L9.00002 4.1C9.20002 4.1 9.20002 4.3 9.00002 4.4L7.90002 5.3C7.80002 5.4 7.70002 5.6 7.70002 5.7V7.2Z" fill="#616161"/>
<path d="M14.9003 8.7C15.0003 8.8 14.9003 8.9 14.7003 8.9L13.9003 8.7C13.7003 8.7 13.5003 8.7 13.4003 8.9L12.8003 9.5C12.7003 9.6 12.6003 9.6 12.6003 9.4L12.5003 8.6C12.5003 8.4 12.3003 8.2 12.2003 8.2L11.5003 7.8C11.4003 7.7 11.4003 7.6 11.5003 7.5L12.3003 7.1C12.4003 7 12.6003 6.8 12.6003 6.7L12.7003 5.9C12.7003 5.7 12.8003 5.7 12.9003 5.8L13.5003 6.4C13.6003 6.5 13.8003 6.6 14.0003 6.6L14.8003 6.5C15.0003 6.5 15.0003 6.6 15.0003 6.7L14.6003 7.4C14.5003 7.5 14.5003 7.8 14.6003 7.9L14.9003 8.7Z" fill="#616161"/>
</g>
<defs>
<clipPath id="clip0_240_6309">
<rect width="28" height="28" fill="white"/>
</clipPath>
</defs>
</svg>
