<svg width="28" height="28" viewBox="0 0 28 28" fill="none" xmlns="http://www.w3.org/2000/svg">
<g clip-path="url(#clip0_234_4329)">
<path d="M27.8099 12.8298L24.7099 10.4398C24.5499 10.7298 24.3899 11.0098 24.2199 11.2898L27 13.4598V26.5298L21.2099 22.0498V14.6998C20.5299 15.2798 20.0299 15.6198 19.9599 15.6998L19.44 16.0298L19 15.6698C17.4531 14.6205 16.0997 13.3112 14.9999 11.7998L13.9999 12.6098L7.53995 7.60982L7.44995 7.54982C7.39676 7.54419 7.34313 7.54419 7.28995 7.54982C7.2404 7.54036 7.1895 7.54036 7.13995 7.54982C7.13995 7.54982 7.13995 7.54982 7.07995 7.54982H6.98995L0.189949 12.8298C0.130466 12.8759 0.0823866 12.935 0.0494377 13.0026C0.0164888 13.0703 -0.000444709 13.1446 -5.05329e-05 13.2198V27.5098C-0.0119158 27.6095 0.00774941 27.7103 0.0561802 27.7982C0.104611 27.8861 0.179371 27.9566 0.269949 27.9998C0.351561 28.0383 0.442056 28.0539 0.531842 28.0451C0.621628 28.0363 0.707359 28.0034 0.779949 27.9498L7.23995 22.9498L13.6999 27.9498C13.725 27.9764 13.7558 27.9969 13.7899 28.0098H13.8399C13.8935 28.0161 13.9476 28.0127 13.9999 27.9998H14.1299H14.2199L14.2999 27.9398L20.76 22.9398L27.2199 27.9398C27.2925 27.9934 27.3783 28.0263 27.4681 28.0351C27.5578 28.0439 27.6483 28.0283 27.7299 27.9898C27.8122 27.9498 27.8813 27.8872 27.9291 27.8092C27.977 27.7313 28.0015 27.6413 28 27.5498V13.2198C28.0003 13.1446 27.9834 13.0703 27.9505 13.0026C27.9175 12.935 27.8694 12.8759 27.8099 12.8298ZM13.5199 26.5298L7.71995 22.0498V8.99982L13.5199 13.4698V26.5298Z" fill="#616161"/>
<path fill-rule="evenodd" clip-rule="evenodd" d="M19.4697 14.8399C19.4697 14.8399 24.9997 11.2299 24.9997 5.4199C24.9999 4.69878 24.8561 3.98488 24.5769 3.32003C24.2977 2.65517 23.8886 2.05271 23.3736 1.54796C22.8586 1.0432 22.248 0.646283 21.5777 0.380463C20.9074 0.114643 20.1907 -0.0147395 19.4697 -0.000104271C18.7357 0.00382483 18.0095 0.152308 17.3328 0.436868C16.6561 0.721428 16.0421 1.13649 15.5258 1.65836C15.0095 2.18023 14.601 2.79868 14.3238 3.4784C14.0465 4.15812 13.9058 4.8858 13.9097 5.6199C13.9097 11.2299 19.4697 14.8399 19.4697 14.8399ZM19.4697 8.2199C19.9481 8.22585 20.4173 8.08932 20.8178 7.82771C21.2183 7.56609 21.5318 7.19122 21.7185 6.75082C21.9053 6.31043 21.9567 5.82442 21.8663 5.35469C21.7759 4.88496 21.5478 4.45275 21.211 4.1131C20.8741 3.77344 20.4439 3.54171 19.9749 3.44739C19.506 3.35308 19.0195 3.40045 18.5776 3.58348C18.1356 3.76651 17.7582 4.07692 17.4932 4.47518C17.2282 4.87345 17.0878 5.34155 17.0897 5.8199C17.0871 6.13412 17.1467 6.44576 17.2651 6.73683C17.3836 7.02789 17.5585 7.29263 17.7797 7.51575C18.001 7.73888 18.2643 7.91598 18.5543 8.03684C18.8444 8.15769 19.1555 8.21991 19.4697 8.2199Z" fill="#616161"/>
</g>
<defs>
<clipPath id="clip0_234_4329">
<rect width="28" height="28" fill="white"/>
</clipPath>
</defs>
</svg>
