<svg width="28" height="28" viewBox="0 0 28 28" fill="none" xmlns="http://www.w3.org/2000/svg">
<path d="M14.6 4.6C15.8703 4.6 16.9 3.57025 16.9 2.3C16.9 1.02974 15.8703 0 14.6 0C13.3298 0 12.3 1.02974 12.3 2.3C12.3 3.57025 13.3298 4.6 14.6 4.6Z" fill="#616161"/>
<path d="M24.6 24.1C24.1 24.1 23.6 23.8 23.3 23.3L19.9 16.9H14.8C14 16.9 13.3 16.2 13.3 15.4V7C13.3 6.4 13.7 5.9 14.2 5.6C14.4 5.5 14.6 5.5 14.8 5.5C15.2 5.5 15.6 5.7 15.8 5.9L18.8 8.9H22.4C23.2 8.9 23.9 9.6 23.9 10.4C23.9 11.2 23.2 11.9 22.4 11.9H18.1C17.7 11.9 17.3 11.7 17.1 11.5L16.2 10.6V13.9H20.7C21.2 13.9 21.7 14.2 22 14.7L25.8 21.9C26.2 22.6 25.9 23.5 25.2 23.9C25 24 24.8 24.1 24.6 24.1Z" fill="#616161"/>
<path d="M11.1 28C6.1 28 2 23.9 2 18.9C2 13.9 6.1 9.79999 11.1 9.79999C11.9 9.79999 12.6 10.5 12.6 11.3C12.6 12.1 11.9 12.8 11.1 12.8C7.7 12.8 5 15.6 5 18.9C5 22.3 7.8 25 11.1 25C14.4 25 17.2 22.2 17.2 18.9C17.2 18.1 17.9 17.4 18.7 17.4C19.5 17.4 20.2 18.1 20.2 18.9C20.1 23.9 16.1 28 11.1 28Z" fill="#616161"/>
<path d="M11.1 21.5C12.5359 21.5 13.7 20.3359 13.7 18.9C13.7 17.464 12.5359 16.3 11.1 16.3C9.66406 16.3 8.5 17.464 8.5 18.9C8.5 20.3359 9.66406 21.5 11.1 21.5Z" fill="#616161"/>
</svg>
