<svg width="28" height="28" viewBox="0 0 28 28" fill="none" xmlns="http://www.w3.org/2000/svg">
<g clip-path="url(#clip0_234_4411)">
<path fill-rule="evenodd" clip-rule="evenodd" d="M2.7002 9.8H7.60019C8.10019 9.8 8.5002 9.4 8.5002 8.9V6.4C8.5002 4.5 7.0002 3 5.1002 3C3.2002 3 1.7002 4.5 1.7002 6.4V8.8C1.7002 9.3 2.1002 9.8 2.7002 9.8Z" fill="#616161"/>
<path fill-rule="evenodd" clip-rule="evenodd" d="M11.6001 9.8H16.5001C17.0001 9.8 17.4001 9.4 17.4001 8.9V6.4C17.4001 4.5 15.9001 3 14.0001 3C12.1001 3 10.6001 4.5 10.6001 6.4V8.8C10.6001 9.3 11.0001 9.8 11.6001 9.8Z" fill="#616161"/>
<path fill-rule="evenodd" clip-rule="evenodd" d="M20.5 9.8H25.4C25.9 9.8 26.3 9.4 26.3 8.9V6.4C26.3 4.5 24.8 3 22.9 3C21 3 19.5 4.5 19.5 6.4V8.8C19.5 9.3 19.9 9.8 20.5 9.8Z" fill="#616161"/>
<path fill-rule="evenodd" clip-rule="evenodd" d="M27.3 5.69995C26.9 5.69995 26.6 5.99995 26.6 6.39995V10.4H19V6.39995C19 5.99995 18.7 5.69995 18.3 5.69995C17.9 5.69995 17.6 5.99995 17.6 6.39995V10.4H10V6.39995C10 5.99995 9.7 5.69995 9.3 5.69995C8.9 5.69995 8.9 5.99995 8.9 6.39995V10.4H1.3V6.39995C1.3 5.99995 1 5.69995 0.7 5.69995C0.4 5.69995 0 5.99995 0 6.39995V13C0 13.4 0.3 13.7 0.7 13.7C1.1 13.7 1.4 13.4 1.4 13V11.7H9V13C9 13.4 9.3 13.7 9.7 13.7C10.1 13.7 10.4 13.4 10.4 13V11.7H18V13C18 13.4 18.3 13.7 18.7 13.7C19.1 13.7 19.4 13.4 19.4 13V11.7H27V13C27 13.4 27.3 13.7 27.7 13.7C28.1 13.7 28.4 13.4 28.4 13V6.39995C28 5.99995 27.7 5.69995 27.3 5.69995Z" fill="#616161"/>
<path fill-rule="evenodd" clip-rule="evenodd" d="M2.7002 21.8001H7.60019C8.10019 21.8001 8.5002 21.4001 8.5002 20.9001V18.5001C8.5002 16.6001 7.0002 15.1001 5.1002 15.1001C3.2002 15.1001 1.7002 16.6001 1.7002 18.5001V20.9001C1.7002 21.4001 2.1002 21.8001 2.7002 21.8001Z" fill="#616161"/>
<path fill-rule="evenodd" clip-rule="evenodd" d="M11.6001 21.8001H16.5001C17.0001 21.8001 17.4001 21.4001 17.4001 20.9001V18.5001C17.4001 16.6001 15.9001 15.1001 14.0001 15.1001C12.1001 15.1001 10.6001 16.6001 10.6001 18.5001V20.9001C10.6001 21.4001 11.0001 21.8001 11.6001 21.8001Z" fill="#616161"/>
<path fill-rule="evenodd" clip-rule="evenodd" d="M20.5 21.8001H25.4C25.9 21.8001 26.3 21.4001 26.3 20.9001V18.5001C26.3 16.6001 24.8 15.1001 22.9 15.1001C21 15.1001 19.5 16.6001 19.5 18.5001V20.9001C19.5 21.4001 19.9 21.8001 20.5 21.8001Z" fill="#616161"/>
<path fill-rule="evenodd" clip-rule="evenodd" d="M27.3 17.8C26.9 17.8 26.6 18.1 26.6 18.5V22.5H19V18.5C19 18.1 18.7 17.8 18.3 17.8C17.9 17.8 17.6 18.1 17.6 18.5V22.5H10V18.5C10 18.1 9.7 17.8 9.3 17.8C8.9 17.8 8.6 18.1 8.6 18.5V22.5H1.3V18.5C1.3 18.1 1 17.8 0.6 17.8C0.2 17.8 0 18.1 0 18.5V25.1C0 25.5 0.3 25.8 0.7 25.8C1.1 25.8 1.4 25.5 1.4 25.1V23.8H9V25.1C9 25.5 9.3 25.8 9.7 25.8C10.1 25.8 10.4 25.5 10.4 25.1V23.8H18V25.1C18 25.5 18.3 25.8 18.7 25.8C19.1 25.8 19.4 25.5 19.4 25.1V23.8H27V25.1C27 25.5 27.3 25.8 27.7 25.8C28.1 25.8 28.4 25.5 28.4 25.1V18.5C28 18.1 27.7 17.8 27.3 17.8Z" fill="#616161"/>
</g>
<defs>
<clipPath id="clip0_234_4411">
<rect width="28" height="28" fill="white"/>
</clipPath>
</defs>
</svg>
