<svg width="28" height="28" viewBox="0 0 28 28" fill="none" xmlns="http://www.w3.org/2000/svg">
<g clip-path="url(#clip0_238_5647)">
<path d="M21.4001 15H19.0001C20.6001 13.5 21.5001 11.4 21.5001 9.1C21.5001 4.6 17.9001 1 13.4001 1C8.90015 1 5.40015 4.6 5.40015 9.1C5.40015 13.6 9.00015 17.2 13.5001 17.2C13.6001 17.2 13.7001 17.2 13.8001 17.2H21.4001C21.8001 17.2 22.1001 16.9 22.1001 16.5V15.7C22.1001 15.3 21.8001 15 21.4001 15ZM14.5001 10.5C15.3001 9.9 16.5001 10.1 17.1001 10.9C17.7001 11.7 17.5001 12.9 16.7001 13.5C15.9001 14.1 14.7001 13.9 14.1001 13.1C13.5001 12.3 13.7001 11.2 14.5001 10.5ZM16.4001 6.2C17.4001 5.9 18.5001 6.4 18.8001 7.4C19.1001 8.4 18.6001 9.5 17.6001 9.8C16.6001 10.1 15.5001 9.6 15.2001 8.6C14.8001 7.6 15.4001 6.5 16.4001 6.2ZM13.5001 3.5C14.5001 3.5 15.4001 4.3 15.4001 5.4C15.4001 6.4 14.6001 7.3 13.5001 7.3C12.4001 7.3 11.6001 6.5 11.6001 5.4C11.6001 4.4 12.4001 3.5 13.5001 3.5ZM8.20015 7.4C8.50015 6.4 9.60015 5.9 10.6001 6.2C11.6001 6.5 12.1001 7.6 11.8001 8.6C11.5001 9.6 10.4001 10.1 9.40015 9.8C8.40015 9.5 7.90015 8.4 8.20015 7.4ZM12.8001 13.2C12.2001 14 11.0001 14.2 10.2001 13.6C9.40015 13 9.20015 11.8 9.80015 11C10.4001 10.2 11.6001 10 12.4001 10.6C13.3001 11.2 13.5001 12.3 12.8001 13.2ZM13.0001 9.1C13.0001 8.8 13.2001 8.6 13.5001 8.6C13.8001 8.6 14.0001 8.8 14.0001 9.1C14.0001 9.4 13.8001 9.6 13.5001 9.6C13.2001 9.6 13.0001 9.4 13.0001 9.1Z" fill="#616161"/>
<path d="M13.5001 26.1L0.900088 26C0.700088 26 0.600088 25.9 0.500088 25.8L8.75909e-05 23.7C-0.0999124 23.5 0.200088 23.3 0.400088 23.4L13.8001 25.2" fill="#616161"/>
<path d="M13.7 24.9L0.600049 21.8L0.300049 23L13.7 24.9Z" fill="#9E9E9E"/>
<path d="M13.7 24.9L1.20005 20.2L0.800049 21.4L13.7 24.9Z" fill="#9E9E9E"/>
<path d="M13.7001 24.9L2.00015 18.7L1.40015 19.8L13.7001 24.9Z" fill="#9E9E9E"/>
<path d="M13.7001 24.9L3.10015 17.3L2.40015 18.3L13.7001 24.9Z" fill="#9E9E9E"/>
<path d="M14.5 26.1L27.1 26C27.3 26 27.4 25.9 27.5 25.8L28.1 23.7C28.2 23.5 27.9 23.3 27.7 23.4L14.3 25.2" fill="#616161"/>
<path d="M14.3 24.9L27.4 21.8L27.7 23L14.3 24.9Z" fill="#9E9E9E"/>
<path d="M14.3 24.9L26.8 20.2L27.2 21.4L14.3 24.9Z" fill="#9E9E9E"/>
<path d="M14.3 24.9L26 18.7L26.6 19.8L14.3 24.9Z" fill="#9E9E9E"/>
<path d="M14.3 24.9L24.9 17.3L25.6 18.3L14.3 24.9Z" fill="#9E9E9E"/>
</g>
<defs>
<clipPath id="clip0_238_5647">
<rect width="28" height="28" fill="white"/>
</clipPath>
</defs>
</svg>
