<svg width="24" height="24" viewBox="0 0 24 24" fill="none" xmlns="http://www.w3.org/2000/svg">
<path d="M22.5002 22.5L17.4334 17.4332M17.4334 17.4332C18.3001 16.5665 18.9876 15.5375 19.4567 14.4051C19.9257 13.2727 20.1671 12.059 20.1671 10.8333C20.1671 9.60763 19.9257 8.39393 19.4567 7.26153C18.9876 6.12913 18.3001 5.1002 17.4334 4.2335C16.5667 3.3668 15.5378 2.67929 14.4054 2.21024C13.273 1.74118 12.0593 1.49976 10.8336 1.49976C9.60787 1.49976 8.39417 1.74118 7.26177 2.21024C6.12937 2.67929 5.10044 3.3668 4.23374 4.2335C2.48336 5.98388 1.5 8.35792 1.5 10.8333C1.5 13.3088 2.48336 15.6828 4.23374 17.4332C5.98412 19.1836 8.35816 20.1669 10.8336 20.1669C13.309 20.1669 15.683 19.1836 17.4334 17.4332Z" stroke="#212121" stroke-width="2" stroke-linecap="round" stroke-linejoin="round"/>
</svg>
