<svg width="18" height="18" viewBox="0 0 18 18" fill="none" xmlns="http://www.w3.org/2000/svg">
<path d="M9 1.53003C4.875 1.53003 1.5 4.89753 1.5 9.04503C1.5 12.795 4.245 15.9075 7.83 16.47V11.22H5.925V9.04503H7.83V7.38753C7.83 5.50503 8.9475 4.47003 10.665 4.47003C11.4825 4.47003 12.3375 4.61253 12.3375 4.61253V6.46503H11.3925C10.4625 6.46503 10.17 7.04253 10.17 7.63503V9.04503H12.255L11.9175 11.22H10.17V16.47C11.9373 16.1909 13.5467 15.2892 14.7074 13.9276C15.8682 12.566 16.504 10.8343 16.5 9.04503C16.5 4.89753 13.125 1.53003 9 1.53003Z" fill="#616161"/>
</svg>
