<svg width="18" height="18" viewBox="0 0 18 18" fill="none" xmlns="http://www.w3.org/2000/svg">
<path d="M9.77094 1.50068C10.3182 1.49858 10.8655 1.50408 11.4127 1.51718L11.5582 1.52243C11.7262 1.52843 11.8919 1.53593 12.0922 1.54493C12.8902 1.58243 13.4347 1.70843 13.9124 1.89368C14.4074 2.08418 14.8244 2.34218 15.2414 2.75918C15.6227 3.13388 15.9178 3.58714 16.1062 4.08743C16.2914 4.56518 16.4174 5.11043 16.4549 5.90843C16.4639 6.10793 16.4714 6.27443 16.4774 6.44243L16.4819 6.58793C16.4953 7.13482 16.501 7.68188 16.4992 8.22893L16.4999 8.78843V9.77093C16.5018 10.3182 16.496 10.8655 16.4827 11.4127L16.4782 11.5582C16.4722 11.7262 16.4647 11.8919 16.4557 12.0922C16.4182 12.8902 16.2907 13.4347 16.1062 13.9124C15.9184 14.4132 15.6233 14.8669 15.2414 15.2414C14.8664 15.6227 14.4129 15.9177 13.9124 16.1062C13.4347 16.2914 12.8902 16.4174 12.0922 16.4549C11.8919 16.4639 11.7262 16.4714 11.5582 16.4774L11.4127 16.4819C10.8656 16.4953 10.3182 16.501 9.77094 16.4992L9.21144 16.4999H8.22969C7.68239 16.5018 7.13509 16.496 6.58794 16.4827L6.44244 16.4782C6.2644 16.4717 6.0864 16.4642 5.90844 16.4557C5.11044 16.4182 4.56594 16.2907 4.08744 16.1062C3.58696 15.9182 3.13362 15.623 2.75919 15.2414C2.37748 14.8666 2.08211 14.4131 1.89369 13.9124C1.70844 13.4347 1.58244 12.8902 1.54494 12.0922C1.53659 11.9142 1.52909 11.7362 1.52244 11.5582L1.51869 11.4127C1.50487 10.8655 1.49862 10.3182 1.49994 9.77093V8.22893C1.49785 7.68188 1.50335 7.13483 1.51644 6.58793L1.52169 6.44243C1.52769 6.27443 1.53519 6.10793 1.54419 5.90843C1.58169 5.10968 1.70769 4.56593 1.89294 4.08743C2.08147 3.58689 2.37742 3.13376 2.75994 2.75993C3.13412 2.37799 3.58717 2.08236 4.08744 1.89368C4.56594 1.70843 5.10969 1.58243 5.90844 1.54493L6.44244 1.52243L6.58794 1.51868C7.13483 1.50486 7.68188 1.49861 8.22894 1.49993L9.77094 1.50068ZM8.99994 5.25068C8.50307 5.24365 8.00976 5.33545 7.54868 5.52073C7.08759 5.70601 6.66793 5.98109 6.31408 6.32997C5.96023 6.67885 5.67924 7.09458 5.48746 7.553C5.29567 8.01142 5.19691 8.50338 5.19691 9.0003C5.19691 9.49722 5.29567 9.98919 5.48746 10.4476C5.67924 10.906 5.96023 11.3218 6.31408 11.6706C6.66793 12.0195 7.08759 12.2946 7.54868 12.4799C8.00976 12.6652 8.50307 12.757 8.99994 12.7499C9.99451 12.7499 10.9483 12.3548 11.6516 11.6516C12.3549 10.9483 12.7499 9.99449 12.7499 8.99993C12.7499 8.00537 12.3549 7.05154 11.6516 6.34828C10.9483 5.64502 9.99451 5.25068 8.99994 5.25068ZM8.99994 6.75068C9.29882 6.74517 9.59581 6.79928 9.87354 6.90983C10.1513 7.02039 10.4042 7.18518 10.6175 7.39459C10.8309 7.60399 11.0003 7.8538 11.116 8.12943C11.2317 8.40507 11.2913 8.70099 11.2914 8.99992C11.2914 9.29885 11.2319 9.5948 11.1163 9.87047C11.0007 10.1461 10.8313 10.396 10.6181 10.6055C10.4048 10.815 10.1519 10.9798 9.87424 11.0905C9.59654 11.2011 9.29958 11.2553 9.00069 11.2499C8.40396 11.2499 7.83166 11.0129 7.4097 10.5909C6.98775 10.169 6.75069 9.59667 6.75069 8.99993C6.75069 8.40319 6.98775 7.83089 7.4097 7.40894C7.83166 6.98698 8.40396 6.74993 9.00069 6.74993L8.99994 6.75068ZM12.9374 4.12568C12.6955 4.13536 12.4667 4.23829 12.2989 4.41291C12.1311 4.58752 12.0374 4.82028 12.0374 5.06243C12.0374 5.30458 12.1311 5.53733 12.2989 5.71195C12.4667 5.88657 12.6955 5.98949 12.9374 5.99918C13.1861 5.99918 13.4245 5.90041 13.6004 5.72459C13.7762 5.54878 13.8749 5.31032 13.8749 5.06168C13.8749 4.81304 13.7762 4.57458 13.6004 4.39877C13.4245 4.22295 13.1861 4.12418 12.9374 4.12418V4.12568Z" fill="#616161"/>
</svg>
