<svg width="18" height="18" viewBox="0 0 18 18" fill="none" xmlns="http://www.w3.org/2000/svg">
<g clip-path="url(#clip0_229_3024)">
<path d="M9.05737 2.24878H9.1575C10.0823 2.25215 14.7679 2.2859 16.0312 2.62565C16.4132 2.72934 16.7612 2.93145 17.0406 3.21179C17.3199 3.49212 17.5208 3.84086 17.6231 4.22315C17.7367 4.65065 17.8166 5.21653 17.8706 5.8004L17.8819 5.9174L17.9066 6.2099L17.9156 6.3269C17.9888 7.35515 17.9977 8.31815 17.9989 8.52853V8.61291C17.9977 8.83116 17.9876 9.8594 17.9066 10.9304L17.8976 11.0485L17.8875 11.1655C17.8312 11.809 17.748 12.448 17.6231 12.9183C17.5211 13.3007 17.3203 13.6496 17.0409 13.93C16.7615 14.2104 16.4133 14.4124 16.0312 14.5158C14.7262 14.8668 9.76612 14.8915 9.07875 14.8927H8.919C8.57137 14.8927 7.13363 14.8859 5.62612 14.8342L5.43488 14.8274L5.337 14.8229L5.14462 14.815L4.95225 14.8072C3.7035 14.752 2.51437 14.6632 1.9665 14.5147C1.58455 14.4114 1.23645 14.2095 0.957065 13.9294C0.677682 13.6492 0.476828 13.3005 0.374625 12.9183C0.24975 12.4492 0.1665 11.809 0.11025 11.1655L0.10125 11.0474L0.09225 10.9304C0.0367285 10.1681 0.00596235 9.4042 0 8.6399L0 8.50153C0.00225 8.25965 0.01125 7.42378 0.072 6.50128L0.079875 6.3854L0.08325 6.3269L0.09225 6.2099L0.117 5.9174L0.12825 5.8004C0.18225 5.21653 0.262125 4.64953 0.37575 4.22315C0.47778 3.84071 0.678558 3.4918 0.957952 3.21142C1.23735 2.93104 1.58554 2.72903 1.96762 2.62565C2.5155 2.4794 3.70462 2.3894 4.95337 2.33315L5.14462 2.32528L5.33812 2.31853L5.43488 2.31515L5.62725 2.30728C6.69792 2.27283 7.76903 2.2537 8.84025 2.2499H9.05737V2.24878ZM7.2 5.86003V11.2803L11.8766 8.57128L7.2 5.86003Z" fill="#616161"/>
</g>
<defs>
<clipPath id="clip0_229_3024">
<rect width="18" height="18" fill="white"/>
</clipPath>
</defs>
</svg>
