<svg width="18" height="18" viewBox="0 0 18 18" fill="none" xmlns="http://www.w3.org/2000/svg">
<path d="M15.1623 2H2.84608C1.27612 2 0 3.26386 0 4.82705V11.5288C0 13.092 1.27612 14.3559 2.84608 14.3559H7.08582L8.52985 16.6924C8.52985 16.6924 8.54664 16.7173 8.58022 16.7589C8.66418 16.9002 8.82369 17 9 17C9.17631 17 9.33582 16.9002 9.41978 16.7589C9.45336 16.7173 9.47015 16.6924 9.47015 16.6924L10.9142 14.3559H15.1539C16.7239 14.3559 18 13.092 18 11.5288V4.82705C18 3.26386 16.7323 2 15.1623 2Z" fill="#616161"/>
<path d="M4.00447 6.91406C4.00447 6.91406 3.50913 6.91406 3.06417 7.34643V5.61694H1.96436V10.1652H3.08096V9.80763C3.08096 9.80763 3.34122 10.2733 4.00447 10.2733C4.00447 10.2733 5.55764 10.2151 5.55764 8.57703C5.55764 8.57703 5.49887 6.91406 4.00447 6.91406ZM3.761 9.31705C3.36641 9.31705 3.05577 9.00109 3.05577 8.61861C3.05577 8.22781 3.3748 7.92016 3.761 7.92016C4.15559 7.92016 4.46622 8.23612 4.46622 8.61861C4.46622 9.00109 4.14719 9.31705 3.761 9.31705Z" fill="white"/>
<path d="M5.91016 5.50879V6.56478C5.91016 6.56478 6.41389 6.53983 6.41389 7.47109V10.1651H7.48012V7.22165C7.47172 7.22165 7.5221 5.50879 5.91016 5.50879Z" fill="white"/>
<path d="M10.0745 6.93066C10.0745 6.93066 8.25264 6.93066 8.25264 8.61858C8.25264 8.61858 8.19388 10.2816 10.0745 10.2816C10.0745 10.2816 11.9383 10.2816 11.9383 8.61858C11.9299 8.61026 11.997 6.93066 10.0745 6.93066ZM10.0745 9.31703C9.67988 9.31703 9.36925 9.00106 9.36925 8.61858C9.36925 8.22778 9.68828 7.92013 10.0745 7.92013C10.4691 7.92013 10.7797 8.2361 10.7797 8.61858C10.7797 9.00106 10.4607 9.31703 10.0745 9.31703Z" fill="white"/>
<path d="M14.9773 7.03861V7.34625C14.9773 7.34625 14.6582 6.93051 14.0538 6.93051C14.0538 6.93051 12.4922 6.86399 12.4922 8.6018C12.4922 8.6018 12.4754 10.2232 14.0118 10.2232C14.0118 10.2232 14.6331 10.2481 14.9773 9.80745V10.0652C14.9773 10.0652 15.0528 10.8634 14.272 10.8634H14.0034V11.828H14.4316C14.4316 11.828 16.0435 11.8446 16.0435 10.1234V7.03861H14.9773ZM14.314 9.31688C13.9194 9.31688 13.6088 9.00091 13.6088 8.61843C13.6088 8.22763 13.9278 7.91998 14.314 7.91998C14.7086 7.91998 15.0192 8.23594 15.0192 8.61843C15.0276 9.00091 14.7086 9.31688 14.314 9.31688Z" fill="white"/>
</svg>
