<svg width="18" height="18" viewBox="0 0 18 18" fill="none" xmlns="http://www.w3.org/2000/svg">
<g id="ri:instagram-fill">
<path id="Vector" d="M9.77094 1.50092C10.3182 1.49882 10.8655 1.50432 11.4127 1.51742L11.5582 1.52267C11.7262 1.52867 11.8919 1.53617 12.0922 1.54517C12.8902 1.58267 13.4347 1.70867 13.9124 1.89392C14.4074 2.08442 14.8244 2.34242 15.2414 2.75942C15.6227 3.13413 15.9178 3.58738 16.1062 4.08767C16.2914 4.56542 16.4174 5.11067 16.4549 5.90867C16.4639 6.10817 16.4714 6.27467 16.4774 6.44267L16.4819 6.58817C16.4953 7.13507 16.501 7.68212 16.4992 8.22917L16.4999 8.78867V9.77117C16.5018 10.3185 16.496 10.8658 16.4827 11.4129L16.4782 11.5584C16.4722 11.7264 16.4647 11.8922 16.4557 12.0924C16.4182 12.8904 16.2907 13.4349 16.1062 13.9127C15.9184 14.4135 15.6233 14.8671 15.2414 15.2417C14.8664 15.6229 14.4129 15.918 13.9124 16.1064C13.4347 16.2917 12.8902 16.4177 12.0922 16.4552C11.8919 16.4642 11.7262 16.4717 11.5582 16.4777L11.4127 16.4822C10.8656 16.4955 10.3182 16.5013 9.77094 16.4994L9.21144 16.5002H8.22969C7.68239 16.502 7.13509 16.4963 6.58794 16.4829L6.44244 16.4784C6.2644 16.472 6.0864 16.4645 5.90844 16.4559C5.11044 16.4184 4.56594 16.2909 4.08744 16.1064C3.58696 15.9184 3.13362 15.6233 2.75919 15.2417C2.37748 14.8669 2.08211 14.4133 1.89369 13.9127C1.70844 13.4349 1.58244 12.8904 1.54494 12.0924C1.53659 11.9145 1.52909 11.7365 1.52244 11.5584L1.51869 11.4129C1.50487 10.8658 1.49862 10.3185 1.49994 9.77117V8.22917C1.49785 7.68212 1.50335 7.13507 1.51644 6.58817L1.52169 6.44267C1.52769 6.27467 1.53519 6.10817 1.54419 5.90867C1.58169 5.10992 1.70769 4.56617 1.89294 4.08767C2.08147 3.58714 2.37742 3.13401 2.75994 2.76017C3.13412 2.37824 3.58717 2.0826 4.08744 1.89392C4.56594 1.70867 5.10969 1.58267 5.90844 1.54517L6.44244 1.52267L6.58794 1.51892C7.13483 1.5051 7.68188 1.49885 8.22894 1.50017L9.77094 1.50092ZM8.99994 5.25092C8.50307 5.2439 8.00976 5.33569 7.54868 5.52097C7.08759 5.70626 6.66793 5.98133 6.31408 6.33021C5.96023 6.6791 5.67924 7.09483 5.48746 7.55325C5.29567 8.01166 5.19691 8.50363 5.19691 9.00055C5.19691 9.49747 5.29567 9.98943 5.48746 10.4479C5.67924 10.9063 5.96023 11.322 6.31408 11.6709C6.66793 12.0198 7.08759 12.2948 7.54868 12.4801C8.00976 12.6654 8.50307 12.7572 8.99994 12.7502C9.99451 12.7502 10.9483 12.3551 11.6516 11.6518C12.3549 10.9486 12.7499 9.99473 12.7499 9.00017C12.7499 8.00561 12.3549 7.05178 11.6516 6.34852C10.9483 5.64526 9.99451 5.25092 8.99994 5.25092ZM8.99994 6.75092C9.29882 6.74542 9.59581 6.79952 9.87354 6.91008C10.1513 7.02064 10.4042 7.18543 10.6175 7.39483C10.8309 7.60423 11.0003 7.85405 11.116 8.12968C11.2317 8.40531 11.2913 8.70123 11.2914 9.00017C11.2914 9.2991 11.2319 9.59504 11.1163 9.87071C11.0007 10.1464 10.8313 10.3963 10.6181 10.6057C10.4048 10.8152 10.1519 10.9801 9.87424 11.0907C9.59654 11.2014 9.29958 11.2556 9.00069 11.2502C8.40396 11.2502 7.83166 11.0131 7.4097 10.5912C6.98775 10.1692 6.75069 9.59691 6.75069 9.00017C6.75069 8.40344 6.98775 7.83114 7.4097 7.40918C7.83166 6.98723 8.40396 6.75017 9.00069 6.75017L8.99994 6.75092ZM12.9374 4.12592C12.6955 4.13561 12.4667 4.23854 12.2989 4.41315C12.1311 4.58777 12.0374 4.82052 12.0374 5.06267C12.0374 5.30482 12.1311 5.53758 12.2989 5.71219C12.4667 5.88681 12.6955 5.98974 12.9374 5.99942C13.1861 5.99942 13.4245 5.90065 13.6004 5.72484C13.7762 5.54902 13.8749 5.31056 13.8749 5.06192C13.8749 4.81328 13.7762 4.57483 13.6004 4.39901C13.4245 4.2232 13.1861 4.12442 12.9374 4.12442V4.12592Z" fill="#9E9E9E"/>
</g>
</svg>
