<svg width="18" height="18" viewBox="0 0 18 18" fill="none" xmlns="http://www.w3.org/2000/svg">
<g id="mdi:facebook">
<path id="Vector" d="M9 1.52979C4.875 1.52979 1.5 4.89729 1.5 9.04479C1.5 12.7948 4.245 15.9073 7.83 16.4698V11.2198H5.925V9.04479H7.83V7.38729C7.83 5.50479 8.9475 4.46979 10.665 4.46979C11.4825 4.46979 12.3375 4.61229 12.3375 4.61229V6.46479H11.3925C10.4625 6.46479 10.17 7.04229 10.17 7.63479V9.04479H12.255L11.9175 11.2198H10.17V16.4698C11.9373 16.1907 13.5467 15.2889 14.7074 13.9273C15.8682 12.5657 16.504 10.834 16.5 9.04479C16.5 4.89729 13.125 1.52979 9 1.52979Z" fill="#9E9E9E"/>
</g>
</svg>
