<svg id="Layer_1" data-name="Layer 1" xmlns="http://www.w3.org/2000/svg" viewBox="0 0 18 18"><defs><style>.cls-1{fill:#9e9e9e;}</style></defs><title>snsf_blog</title><path class="cls-1" d="M10.07,7.92a.7.7,0,1,0,0,1.4.7.7,0,1,0,0-1.4Z"/><path class="cls-1" d="M15.16,2H2.85A2.84,2.84,0,0,0,0,4.83v6.7a2.84,2.84,0,0,0,2.85,2.83H7.09l1.44,2.33.05.07a.49.49,0,0,0,.84,0l.05-.07,1.44-2.33h4.24A2.84,2.84,0,0,0,18,11.53V4.83A2.83,2.83,0,0,0,15.16,2ZM4,10.27a1.05,1.05,0,0,1-.92-.46v.35H2V5.62h1.1V7.35A1.47,1.47,0,0,1,4,6.91c1.5,0,1.56,1.67,1.56,1.67A1.62,1.62,0,0,1,4,10.27Zm3.48-.1H6.41V7.47c0-.93-.5-.91-.5-.91v-1c1.61,0,1.56,1.71,1.57,1.71Zm2.59.11A1.63,1.63,0,0,1,8.25,8.62c0-1.69,1.82-1.69,1.82-1.69a1.67,1.67,0,0,1,1.87,1.69C11.94,10.28,10.07,10.28,10.07,10.28Zm6-.16a1.6,1.6,0,0,1-1.61,1.71H14v-1h.27a.7.7,0,0,0,.71-.79V9.81a1.27,1.27,0,0,1-1,.41c-1.53,0-1.52-1.62-1.52-1.62a1.51,1.51,0,0,1,1.56-1.67,1.22,1.22,0,0,1,.93.42V7H16Z"/><path class="cls-1" d="M14.31,7.92a.7.7,0,1,0,.71.7A.7.7,0,0,0,14.31,7.92Z"/><path class="cls-1" d="M3.76,7.92a.7.7,0,1,0,0,1.4.7.7,0,1,0,0-1.4Z"/></svg>